<?xml version="1.0" encoding="utf-8"?>
<!-- Generator: Adobe Illustrator 21.0.0, SVG Export Plug-In . SVG Version: 6.00 Build 0)  -->
<svg version="1.1" id="Слой_1" xmlns="http://www.w3.org/2000/svg" xmlns:xlink="http://www.w3.org/1999/xlink" x="0px" y="0px"
	 viewBox="0 0 24 24" style="enable-background:new 0 0 24 24;" xml:space="preserve">
<style type="text/css">
	.st0{fill:#B5B5B5;}
</style>
<g>
	<path class="st0" d="M3.5,4.9c-0.4-0.4-0.4-1,0-1.4s1-0.4,1.4,0l15.6,15.6c0.4,0.4,0.4,1,0,1.4c-0.4,0.4-1,0.4-1.4,0L3.5,4.9z"/>
	<path class="st0" d="M19.1,3.5c0.4-0.4,1-0.4,1.4,0c0.4,0.4,0.4,1,0,1.4L4.9,20.5c-0.4,0.4-1,0.4-1.4,0c-0.4-0.4-0.4-1,0-1.4
		L19.1,3.5z"/>
</g>
</svg>
